<svg width="33" height="26" viewBox="0 0 33 26" fill="none" xmlns="http://www.w3.org/2000/svg">
<g id="Group 148">
<g id="Group 149">
<path id="Vector" d="M2.15593 3.79997C2.79433 3.79997 3.31186 3.2851 3.31186 2.64999C3.31186 2.01487 2.79433 1.5 2.15593 1.5C1.51753 1.5 1 2.01487 1 2.64999C1 3.2851 1.51753 3.79997 2.15593 3.79997Z" stroke="#EFECE7" stroke-width="2" stroke-linecap="round" stroke-linejoin="round"/>
<path id="Vector_2" d="M10.2476 2.65088H31.0543" stroke="#EFECE7" stroke-width="2" stroke-linecap="round" stroke-linejoin="round"/>
<path id="Vector_3" d="M2.15593 14.1509C2.79433 14.1509 3.31186 13.6361 3.31186 13.0009C3.31186 12.3658 2.79433 11.851 2.15593 11.851C1.51753 11.851 1 12.3658 1 13.0009C1 13.6361 1.51753 14.1509 2.15593 14.1509Z" stroke="#EFECE7" stroke-width="2" stroke-linecap="round" stroke-linejoin="round"/>
<path id="Vector_4" d="M10.2476 13.0009H31.0543" stroke="#EFECE7" stroke-width="2" stroke-linecap="round" stroke-linejoin="round"/>
<path id="Vector_5" d="M2.15593 24.4999C2.79433 24.4999 3.31186 23.985 3.31186 23.3499C3.31186 22.7149 2.79433 22.2 2.15593 22.2C1.51753 22.2 1 22.7149 1 23.3499C1 23.985 1.51753 24.4999 2.15593 24.4999Z" stroke="#EFECE7" stroke-width="2" stroke-linecap="round" stroke-linejoin="round"/>
<path id="Vector_6" d="M10.2476 23.35H31.0543" stroke="#EFECE7" stroke-width="2" stroke-linecap="round" stroke-linejoin="round"/>
</g>
</g>
</svg>
