<svg width="185" height="186" viewBox="0 0 185 186" fill="none" xmlns="http://www.w3.org/2000/svg">
<circle cx="92.5" cy="92.5" r="85.5" stroke="#E8DBAD" stroke-width="14"/>
<path fill-rule="evenodd" clip-rule="evenodd" d="M93 160C130.003 160 160 130.003 160 93C160 55.9969 130.003 26 93 26C55.9969 26 26 55.9969 26 93C26 130.003 55.9969 160 93 160ZM57.4294 114.435L90.9352 58.5919C91.1112 58.2836 91.3356 57.9996 91.605 57.7525C92.2794 57.1324 93.1675 56.8083 94.0658 56.8312C94.5184 56.8427 94.9735 56.9422 95.4052 57.1363C95.7986 57.3123 96.1619 57.5617 96.4724 57.8786C96.6944 58.1045 96.8816 58.3568 97.0318 58.6272L129.525 114.475C130.017 115.321 130.115 116.288 129.875 117.162C129.895 119.147 128.42 120.744 126.567 120.737L60.4978 120.481C58.7661 120.474 57.3131 119.069 57.086 117.267C56.8037 116.35 56.8971 115.322 57.4294 114.435ZM66.2956 113.263L120.845 113.475L93.9272 67.2106L66.2956 113.263ZM93.9307 77.4722C95.3114 77.4722 96.4307 78.5915 96.4307 79.9722V98.5833C96.4307 99.964 95.3114 101.083 93.9307 101.083C92.5499 101.083 91.4307 99.964 91.4307 98.5833V79.9722C91.4307 78.5915 92.5499 77.4722 93.9307 77.4722ZM93.9303 109.75C95.4721 109.75 96.722 108.5 96.722 106.958C96.722 105.417 95.4721 104.167 93.9303 104.167C92.3885 104.167 91.1387 105.417 91.1387 106.958C91.1387 108.5 92.3885 109.75 93.9303 109.75Z" fill="#E9AA09"/>
</svg>
