<svg width="185" height="186" viewBox="0 0 185 186" fill="none" xmlns="http://www.w3.org/2000/svg">
<circle cx="92.5" cy="92.5" r="85.5" stroke="#EDCBC1" stroke-width="14"/>
<path fill-rule="evenodd" clip-rule="evenodd" d="M160 93C160 130.003 130.003 160 93 160C55.9969 160 26 130.003 26 93C26 55.9969 55.9969 26 93 26C130.003 26 160 55.9969 160 93ZM120.61 64.4088C122.588 66.3358 122.63 69.5013 120.703 71.4792L99.9444 92.7852L120.704 114.092C122.631 116.07 122.59 119.236 120.612 121.163C118.634 123.09 115.468 123.049 113.541 121.071L92.9637 99.9502L72.3861 121.071C70.4591 123.049 67.2935 123.09 65.3156 121.163C63.3378 119.236 63.2965 116.07 65.2236 114.092L85.9829 92.7852L65.2247 71.4792C63.2977 69.5013 63.3389 66.3358 65.3168 64.4088C67.2947 62.4817 70.4602 62.523 72.3873 64.5008L92.9637 85.6203L113.54 64.5008C115.467 62.523 118.633 62.4817 120.61 64.4088Z" fill="#D73806"/>
</svg>
