<svg width="185" height="186" viewBox="0 0 185 186" fill="none" xmlns="http://www.w3.org/2000/svg">
<circle cx="92.5" cy="92.5" r="85.5" stroke="#BCDDCD" stroke-width="14"/>
<path fill-rule="evenodd" clip-rule="evenodd" d="M93 160C130.003 160 160 130.003 160 93C160 55.9969 130.003 26 93 26C55.9969 26 26 55.9969 26 93C26 130.003 55.9969 160 93 160ZM127.735 68.0475C129.372 65.8236 128.897 62.6937 126.673 61.0567C124.449 59.4197 121.319 59.8954 119.682 62.1193L82.2498 112.971L66.9653 95.7168C65.1342 93.6498 61.9742 93.4585 59.9072 95.2896C57.8402 97.1207 57.6489 100.281 59.48 102.348L78.8666 124.232L82.9686 128.863L86.6359 123.881L127.735 68.0475Z" fill="#04AA78"/>
</svg>
